<?xml version="1.0" encoding="UTF-8"?><svg xmlns="http://www.w3.org/2000/svg" viewBox="0 0 80.05 173.22"><defs><style>.d{fill:#fffaca;}</style></defs><g id="a"/><g id="b"><g id="c"><path class="d" d="M18.17,56.63c0-1.03,0-1.75,0-2.46,0-7.01-.02-14.02,0-21.04,.01-3.61,.31-7.2,1.16-10.73C21.86,11.9,28.46,5.31,38.68,2.19,43.77,.64,48.99,.03,54.29,.02c8.01-.03,16.02,0,24.04,0,.46,0,.92,.07,1.35,.1,.43,1.49,.52,27.79,.07,30.25h-2.08c-5.21,0-10.42-.01-15.62,.01-1.2,0-2.4,.09-3.59,.24-2.59,.33-4.33,1.73-4.85,4.34-.29,1.5-.46,3.04-.48,4.57-.06,5.21-.03,10.42-.02,15.63,0,.39,.1,.78,.18,1.43,4.47,0,8.93,0,13.38,0s8.77,0,13.33,0c-.88,9.89-1.73,19.51-2.6,29.28h-24.18c-.26,4.93-.09,9.71-.12,14.48-.03,4.88,0,9.75,0,14.63v43.48c0,4.8,0,9.59,0,14.33-1.65,.45-30.86,.61-34.83,.22-.23-4.73-.07-9.5-.1-14.27-.03-4.81,0-9.62,0-14.43v-43.28c0-4.8,0-9.61,0-14.66-2.09-.14-4.07-.05-6.05-.07-1.94-.02-3.87,0-5.81,0H.38c-.45-1.61-.53-27.28-.11-29.66H18.17Z"/></g></g></svg>