<?xml version="1.0" encoding="UTF-8"?><svg xmlns="http://www.w3.org/2000/svg" viewBox="0 0 157.11 157.12"><defs><style>.d{fill:#fffaca;}</style></defs><g id="a"/><g id="b"><g id="c"><g><path class="d" d="M78.8,157.12c-9.62-.12-18.84-.17-28.05-.37-6.14-.13-12.29-.45-18.26-2.09-17.31-4.76-27.43-16.18-30.93-33.65C.24,114.37,.17,107.6,.11,100.87c-.14-14.89-.14-29.79,0-44.68,.06-6.73,.19-13.49,1.44-20.15,1.94-10.33,6.55-19.13,14.82-25.83C22.62,5.15,29.87,2.46,37.71,1.25,45.06,.12,52.48,.05,59.89,.03c14.15-.04,28.31-.05,42.46,.08,6.47,.06,12.95,.26,19.33,1.54,9.95,2,18.41,6.56,24.92,14.49,4.78,5.83,7.44,12.59,8.85,19.91,1.19,6.13,1.3,12.35,1.4,18.55,.29,18.7,.46,37.4-.28,56.09-.21,5.35-.85,10.65-2.47,15.78-4.78,15.07-14.94,24.43-30.2,28.34-5.54,1.42-11.2,1.78-16.88,1.91-9.54,.22-19.09,.28-28.23,.4ZM14.15,78.45h.2c0,7.41-.05,14.82,.02,22.24,.06,6.01,.13,12.02,1.26,17.96,1.21,6.33,3.85,11.89,8.77,16.25,4.25,3.76,9.3,5.65,14.77,6.65,5.21,.95,10.5,1.05,15.76,1.1,14.42,.14,28.84,.14,43.26,.07,6.54-.03,13.09-.1,19.57-1.17,12.5-2.05,20.78-9.76,23.4-21.85,1.05-4.86,1.34-9.8,1.37-14.73,.12-16.16,.13-32.32,.1-48.47-.01-6.01-.09-12.03-1.23-17.96-2.27-11.91-9.11-19.61-21.03-22.55-3.78-.93-7.63-1.34-11.5-1.4-12.81-.2-25.63-.42-38.45-.39-9.01,.02-18.02,.32-27.01,.76-3.09,.15-6.24,.81-9.21,1.74-9.82,3.08-15.71,9.9-18.18,19.81-1.21,4.83-1.43,9.77-1.54,14.71-.2,9.08-.23,18.16-.34,27.24Z"/><path class="d" d="M118.9,78.47c-.26,23.94-19.69,40.31-40.23,40.39-21.05,.07-40.38-16.74-40.51-40.26-.13-22.31,18-40.45,40.29-40.48,22.3-.02,40.42,18.05,40.45,40.35Zm-40.47-26.07c-14.46,.03-26.05,11.72-26,26.21,.05,14.33,11.74,25.99,26.06,26,14.4,.01,26.12-11.74,26.1-26.17-.02-14.47-11.68-26.08-26.17-26.05Z"/><path class="d" d="M110.95,36.42c.06-5.19,4.32-9.36,9.51-9.3,5.3,.06,9.46,4.32,9.39,9.64-.07,5.18-4.34,9.35-9.52,9.31-5.27-.04-9.43-4.33-9.37-9.64Z"/></g></g></g></svg>