<?xml version="1.0" encoding="UTF-8"?>
<svg id="Layer_2" data-name="Layer 2" xmlns="http://www.w3.org/2000/svg" viewBox="0 0 489.51 301.09">
  <defs>
    <style>
      .cls-1 {
        fill: #fffaca;
      }

      .cls-2 {
        fill: #fc8363;
      }

      .cls-3 {
        fill: #9187a0;
      }

      .cls-4 {
        fill: #06c3b5;
      }

      .cls-5 {
        fill: #5e5982;
      }

      .cls-6 {
        fill: #082d74;
        stroke: #082d74;
        stroke-miterlimit: 10;
      }
    </style>
  </defs>
  <g id="Layer_1-2" data-name="Layer 1">
    <g>
      <path class="cls-6" d="M339.51,15c36.21,0,70.29,14.1,95.89,39.7,25.6,25.6,39.7,59.64,39.7,95.85s-14.1,70.24-39.7,95.85c-25.6,25.6-59.64,39.7-95.85,39.7H151.14c-36.21,0-70.24-14.1-95.85-39.7S15.59,186.75,15.59,150.55,29.69,80.3,55.29,54.7C80.89,29.1,114.93,15,151.14,15"/>
      <path class="cls-2" d="M164.91,135.86l-74.58,.88c-4.29,.05-4.3,2.23-.01,2.29l85.27,1.36-10.68-4.53Z"/>
      <path class="cls-2" d="M312.65,135.85l83.13,.82c4.6,.05,4.64,2.21,4.67,2.27l-97.77,1.6,9.97-4.7Z"/>
      <g>
        <path class="cls-1" d="M329.46,101.85h-1.2c-.62,0-.62,.03-1.2,.03-.62,0-.62,.03-1.2,.03h-1.2c-.58,0-.58-.1-1.2-.1-.23,0-.39-.13-.39-.38,0-.54-.06-.54-.06-1.11s.06-.57,.06-1.15,.03-.57,.03-1.15c0-.22,.13-.35,.36-.35,.58,0,.58-.06,1.2-.06,.58,0,.58,.03,1.17,.03h2.37c.58,0,.58-.06,1.17-.06,.62,0,.62,.03,1.2,.03s.58-.03,1.17-.03h1.2c.58,0,.58,.06,1.17,.06s.58-.1,1.17-.1c.62,0,.62,.13,1.2,.13s.58-.1,1.17-.1h1.2c.58,0,.58,.06,1.17,.06s.58-.03,1.2-.03c.23,0,.42,.19,.42,.41v2.29c0,.57-.06,.57-.06,1.11,0,.25-.13,.48-.36,.48-.62,0-.62-.03-1.2-.03-.62,0-.62-.03-1.2-.03h-1.2c-.58,0-.58-.03-1.2-.03-.58,0-.58,.06-1.2,.06-.23,0-.39,.16-.39,.38,0,.57-.06,.57-.06,1.15s.03,.57,.03,1.18c0,.57-.03,.57-.03,1.15s.06,.57,.06,1.15v1.15c0,.57,.03,.57,.03,1.15s-.06,.57-.06,1.15,.06,.57,.06,1.15-.06,.57-.06,1.15-.03,.57-.03,1.15-.03,.57-.03,1.15c0,.61,.03,.61,.03,1.18v1.15c0,.57,.06,.57,.06,1.15v2.29c0,.22-.19,.41-.45,.41-.68,0-.68-.03-1.37-.03h-1.36c-.68,0-.68,.1-1.33,.1-.26,0-.52-.26-.52-.48,0-.57,.06-.57,.06-1.15s.03-.57,.03-1.15-.07-.57-.07-1.15v-1.15c0-.57,.13-.57,.13-1.15,0-.6-.1-.6-.1-1.18s-.03-.57-.03-1.15,.1-.57,.1-1.15-.03-.57-.03-1.15-.07-.57-.07-1.15,.03-.57,.03-1.15-.03-.57-.03-1.15v-1.15c0-.57,.07-.57,.07-1.15,0-.6-.07-.6-.07-1.18s.03-.57,.03-1.15c0-.22-.16-.41-.39-.41Z"/>
        <path class="cls-1" d="M350.83,97.62c.58,0,.58-.16,1.17-.16,.62,0,.62,.06,1.2,.06,.62,0,.62,.06,1.2,.06,.36,0,.75,.26,.75,.61,0,.6-.1,.6-.1,1.24s.06,.6,.06,1.21c0,.64,.03,.64,.03,1.24v1.24c0,.6-.06,.6-.06,1.24s.06,.6,.06,1.21c0,.64-.1,.64-.1,1.24,0,.35,.32,.7,.68,.7,.55,0,.55-.06,1.14-.06h1.1c.55,0,.55,.1,1.1,.1s.55-.03,1.1-.03c.58,0,.58-.1,1.14-.1s.55-.03,1.1-.03h1.1c.55,0,.55,.1,1.1,.1,.39,0,.71-.32,.71-.67,0-.61-.1-.61-.1-1.24s.07-.6,.07-1.21c0-.64,.06-.64,.06-1.24v-1.24c0-.6-.1-.6-.1-1.24s-.03-.6-.03-1.21c0-.64,.1-.64,.1-1.24,0-.35,.26-.64,.65-.64,.58,0,.58,.03,1.2,.03,.58,0,.58-.06,1.17-.06,.62,0,.62-.06,1.2-.06,.39,0,.65,.38,.65,.73,0,.57,.03,.57,.03,1.18,0,.57-.03,.57-.03,1.15,0,.6,.07,.6,.07,1.18s-.07,.57-.07,1.18c0,.57,.07,.57,.07,1.15s-.03,.57-.03,1.18v1.15c0,.6,.07,.6,.07,1.18s-.03,.57-.03,1.18c0,.57-.07,.57-.07,1.15,0,.6-.03,.6-.03,1.18s.13,.57,.13,1.15c0,.6-.13,.6-.13,1.18s.06,.57,.06,1.18c0,.57-.06,.57-.06,1.15,0,.6,.03,.6,.03,1.18s-.03,.57-.03,1.18c0,.57,.06,.57,.06,1.15s.03,.57,.03,1.18c0,.35-.33,.64-.71,.64-.58,0-.58-.03-1.2-.03-.58,0-.58,.03-1.17,.03-.62,0-.62,.06-1.2,.06-.39,0-.68-.35-.68-.7,0-.57-.03-.57-.03-1.15,0-.54,.06-.54,.06-1.11s-.03-.57-.03-1.15c0-.54,.06-.54,.06-1.11v-1.11c0-.57-.06-.57-.06-1.15s.06-.57,.06-1.11c0-.38-.36-.7-.75-.7-.55,0-.55,.1-1.1,.1s-.55-.03-1.1-.03-.55,.03-1.1,.03-.55-.03-1.14-.03c-.55,0-.55-.06-1.1-.06s-.55,.03-1.1,.03-.55,.06-1.1,.06c-.58,0-.58-.06-1.14-.06-.36,0-.62,.29-.62,.67,0,.54-.03,.54-.03,1.11s-.07,.57-.07,1.15v2.23c0,.57,.13,.57,.13,1.15s-.1,.57-.1,1.11v1.15c0,.35-.29,.6-.65,.6-.58,0-.58,.1-1.2,.1-.58,0-.58-.06-1.2-.06-.58,0-.58-.03-1.17-.03-.39,0-.62-.25-.62-.6v-1.18c0-.57-.07-.57-.07-1.15v-1.18c0-.57,.07-.57,.07-1.18,0-.57-.03-.57-.03-1.15,0-.6,.03-.6,.03-1.18s-.07-.57-.07-1.18c0-.57-.06-.57-.06-1.15s.03-.57,.03-1.18c0-.57,.07-.57,.07-1.15,0-.6,.03-.6,.03-1.18s-.03-.57-.03-1.18c0-.57-.07-.57-.07-1.15v-1.18c0-.57,.07-.57,.07-1.15v-1.18c0-.57-.03-.57-.03-1.18,0-.57,.03-.57,.03-1.15v-1.18c0-.35,.26-.57,.65-.57Z"/>
        <path class="cls-1" d="M380.2,97.62c.58,0,.58-.03,1.2-.03,.58,0,.58,.03,1.2,.03,.58,0,.58,.03,1.2,.03,.58,0,.58-.1,1.2-.1,.58,0,.58,.06,1.2,.06,.58,0,.58-.06,1.2-.06h1.2c.58,0,.58,.06,1.2,.06,.58,0,.58-.1,1.2-.1,.58,0,.58,.1,1.2,.1,.58,0,.58,.03,1.2,.03,.58,0,.58-.1,1.2-.1,.39,0,.78,.35,.78,.73,0,.7-.13,.7-.13,1.43s.1,.7,.1,1.4c0,.38-.36,.7-.75,.7h-2.37c-.62,0-.62,.03-1.2,.03s-.58-.1-1.17-.1c-.62,0-.62,.1-1.2,.1s-.58,.03-1.17,.03c-.62,0-.62-.1-1.2-.1s-.58,.03-1.2,.03c-.39,0-.65,.32-.65,.7,0,.67,.03,.67,.03,1.34s-.1,.67-.1,1.34,.06,.67,.06,1.34c0,.38,.26,.7,.65,.7,.58,0,.58-.03,1.17-.03s.58-.06,1.17-.06c.62,0,.62,.13,1.2,.13s.58-.1,1.17-.1,.58,.1,1.17,.1,.58-.03,1.17-.03h1.17c.39,0,.68,.29,.68,.67,0,.7-.03,.7-.03,1.37v1.4c0,.38-.26,.64-.65,.64-.58,0-.58,.06-1.17,.06s-.58-.03-1.17-.03h-1.17c-.58,0-.58-.03-1.17-.03s-.58,.06-1.17,.06c-.62,0-.62-.06-1.2-.06s-.58,.06-1.17,.06c-.39,0-.75,.29-.75,.67v3.06c0,.51,.03,.51,.03,1.02,0,.38,.32,.76,.71,.76,.65,0,.65-.03,1.27-.03s.62-.06,1.24-.06c.65,0,.65-.03,1.27-.03h2.5c.62,0,.62,.1,1.23,.1s.62-.03,1.27-.03,.62-.1,1.23-.1c.39,0,.71,.38,.71,.76v1.43c0,.73,.07,.73,.07,1.43,0,.38-.39,.64-.78,.64-.58,0-.58,.03-1.14,.03-.58,0-.58,.1-1.17,.1-.55,0-.55-.03-1.14-.03h-1.14c-.58,0-.58,.03-1.17,.03-.55,0-.55-.06-1.14-.06s-.58-.03-1.14-.03h-1.17c-.55,0-.55-.03-1.14-.03s-.58,.03-1.14,.03c-.58,0-.58,.03-1.17,.03-.55,0-.55,.06-1.14,.06s-.58-.06-1.14-.06c-.39,0-.71-.32-.71-.7,0-.57-.06-.57-.06-1.15,0-.6,.03-.6,.03-1.18s-.03-.57-.03-1.15v-1.18c0-.57,.1-.57,.1-1.15v-1.18c0-.57,.03-.57,.03-1.15,0-.6-.07-.6-.07-1.18v-2.32c0-.57,.07-.57,.07-1.15,0-.6-.1-.6-.1-1.18s.07-.57,.07-1.15c0-.61-.07-.61-.07-1.18v-1.15c0-.6,.1-.6,.1-1.18s-.07-.57-.07-1.15v-1.18c0-.57-.06-.57-.06-1.15,0-.38,.39-.67,.78-.67Z"/>
        <path class="cls-1" d="M84.34,109.33c0-.41,.03-.8,.06-1.18,.03-.41,0-.83,.1-1.21,.07-.38,.2-.76,.29-1.15,.13-.38,.33-.73,.49-1.11,.13-.38,.23-.76,.42-1.11,.19-.35,.39-.7,.62-1.02,.23-.35,.46-.67,.71-.99,.26-.29,.65-.51,.91-.8,.29-.26,.52-.61,.84-.86,.32-.25,.71-.41,1.04-.6,.36-.22,.65-.51,1.01-.7,.36-.16,.75-.32,1.1-.48,.39-.13,.78-.19,1.2-.29,.36-.13,.75-.26,1.17-.32,.39-.1,.78-.16,1.2-.19,.39-.03,.78-.1,1.2-.1s.81,.06,1.2,.1c.42,.06,.84,.06,1.23,.13s.78,.22,1.17,.32c.39,.13,.78,.25,1.14,.41,.39,.16,.78,.25,1.14,.41,.36,.19,.71,.41,1.04,.64,.36,.19,.65,.48,.97,.73,.33,.22,.68,.45,.97,.73,.26,.25,.49,.6,.75,.92,.26,.29,.52,.6,.71,.96,.23,.32,.42,.67,.62,1.02,.2,.35,.36,.7,.52,1.08,.13,.38,.32,.73,.42,1.11,.13,.38,.13,.76,.23,1.18,.06,.38,.13,.76,.16,1.18,.03,.38,.16,.76,.16,1.18s-.1,.8-.13,1.18c-.03,.41-.13,.8-.2,1.18-.1,.38-.16,.76-.29,1.15-.1,.38-.13,.8-.26,1.18-.16,.38-.36,.73-.55,1.08-.2,.35-.46,.67-.68,.99-.2,.32-.42,.67-.68,.96-.26,.32-.55,.6-.84,.89-.29,.25-.55,.57-.88,.83-.29,.25-.68,.41-1.04,.6-.33,.22-.68,.41-1.04,.6-.36,.19-.68,.41-1.07,.57-.39,.16-.78,.22-1.17,.32-.39,.13-.78,.16-1.2,.22-.39,.06-.78,.19-1.2,.25-.39,.03-.78,.1-1.2,.1s-.81-.06-1.2-.1c-.42-.03-.81-.16-1.2-.25-.39-.06-.81-.06-1.2-.16-.39-.1-.78-.25-1.14-.41-.39-.16-.75-.35-1.1-.54-.36-.19-.68-.38-1.04-.6-.33-.22-.71-.38-1.01-.64-.32-.25-.65-.51-.94-.76-.29-.29-.52-.64-.75-.92-.26-.32-.55-.6-.78-.92-.23-.35-.36-.73-.55-1.08-.2-.35-.46-.67-.58-1.05-.16-.35-.32-.73-.45-1.11-.1-.38-.16-.76-.23-1.18-.06-.38-.1-.76-.13-1.18-.03-.38-.06-.76-.06-1.18Zm19.72,0c0-.41,0-.8-.06-1.18-.03-.41-.2-.76-.33-1.15-.1-.38-.19-.76-.32-1.11-.16-.38-.29-.76-.52-1.08-.19-.35-.52-.6-.78-.89-.26-.32-.55-.57-.88-.83-.29-.22-.65-.45-1.01-.64-.32-.16-.65-.45-1.04-.57-.39-.1-.81-.1-1.2-.16-.39-.03-.78-.19-1.2-.19s-.81,.13-1.2,.19c-.39,.06-.78,.16-1.17,.25-.39,.13-.78,.22-1.14,.41-.36,.19-.65,.45-.97,.67-.33,.25-.58,.54-.88,.83-.26,.29-.46,.64-.68,.96-.2,.35-.42,.67-.58,1.02-.16,.38-.26,.76-.36,1.15-.1,.38-.23,.73-.26,1.15-.07,.38-.1,.76-.1,1.18s.1,.8,.13,1.18c.07,.38,.1,.76,.2,1.15,.13,.38,.23,.76,.36,1.15,.16,.35,.42,.67,.65,.99,.19,.35,.39,.7,.65,.99,.26,.32,.55,.57,.88,.83,.29,.22,.65,.48,.97,.67,.36,.19,.75,.35,1.14,.48,.36,.1,.78,.16,1.17,.22s.78,.16,1.2,.16,.81-.06,1.2-.13c.42-.06,.78-.22,1.17-.35s.78-.22,1.14-.38c.36-.19,.71-.38,1.01-.64,.32-.26,.62-.54,.88-.83,.29-.29,.42-.67,.62-1.02,.23-.32,.42-.67,.58-1.02s.32-.7,.45-1.11c.1-.35,.16-.76,.2-1.15,.07-.38,.1-.76,.1-1.18Z"/>
        <path class="cls-1" d="M118.06,97.59c.58,0,.58-.03,1.17-.03s.58,.06,1.17,.06,.58,.03,1.17,.03,.58-.06,1.17-.06,.58-.03,1.17-.03,.58,.1,1.17,.1,.58-.1,1.17-.1h1.17c.58,0,.58,.03,1.17,.03s.58-.03,1.17-.03h1.17c.55,0,.55,.03,1.14,.03,.39,0,.75,.32,.75,.7,0,.7-.07,.7-.07,1.43s-.03,.7-.03,1.43c0,.38-.26,.64-.65,.64-.55,0-.55,.1-1.1,.1-.58,0-.58-.03-1.14-.03h-1.14c-.58,0-.58-.1-1.14-.1-.58,0-.58,.1-1.14,.1h-1.14c-.58,0-.58,.03-1.14,.03h-1.14c-.39,0-.71,.25-.71,.64,0,.6-.03,.6-.03,1.18,0,.61,.06,.61,.06,1.18,0,.6-.03,.6-.03,1.18v1.21c0,.35,.32,.67,.71,.67h1.17c.58,0,.58,.06,1.14,.06,.58,0,.58-.06,1.17-.06s.58,.06,1.17,.06h1.17c.58,0,.58-.06,1.14-.06,.58,0,.58-.03,1.17-.03,.39,0,.71,.35,.71,.73,0,.48,.03,.48,.03,.99v.96c0,.51,.03,.51,.03,.99,0,.38-.39,.76-.78,.76-.58,0-.58-.13-1.17-.13h-2.31c-.58,0-.58,.1-1.17,.1s-.58,.03-1.17,.03h-1.14c-.58,0-.58-.1-1.17-.1-.39,0-.75,.32-.75,.7,0,.64,.06,.64,.06,1.24v4.97c0,.6,.03,.6,.03,1.21,0,.38-.39,.76-.75,.76-.62,0-.62-.03-1.2-.03h-1.17c-.58,0-.58-.06-1.17-.06-.39,0-.71-.29-.71-.67,0-.57,.03-.57,.03-1.15s.03-.57,.03-1.18c0-.57-.07-.57-.07-1.15s.03-.57,.03-1.18v-1.15c0-.57,.06-.57,.06-1.18,0-.57-.06-.57-.06-1.15v-1.18c0-.57-.1-.57-.1-1.15s.1-.57,.1-1.18c0-.57-.03-.57-.03-1.15s-.03-.57-.03-1.18c0-.57,.03-.57,.03-1.15s.07-.57,.07-1.18v-1.15c0-.57,.03-.57,.03-1.18,0-.57-.03-.57-.03-1.15v-1.18c0-.57-.13-.57-.13-1.15,0-.38,.39-.7,.78-.7Z"/>
        <path class="cls-1" d="M142.04,97.59c.58,0,.58-.03,1.17-.03s.58,.06,1.17,.06,.58,.03,1.17,.03,.58-.06,1.17-.06,.58-.03,1.17-.03,.58,.1,1.17,.1,.58-.1,1.17-.1h1.17c.58,0,.58,.03,1.17,.03s.58-.03,1.17-.03h1.17c.55,0,.55,.03,1.14,.03,.39,0,.75,.32,.75,.7,0,.7-.07,.7-.07,1.43s-.03,.7-.03,1.43c0,.38-.26,.64-.65,.64-.55,0-.55,.1-1.1,.1-.58,0-.58-.03-1.14-.03h-1.14c-.58,0-.58-.1-1.14-.1-.58,0-.58,.1-1.14,.1h-1.14c-.58,0-.58,.03-1.14,.03h-1.14c-.39,0-.71,.25-.71,.64,0,.6-.03,.6-.03,1.18,0,.61,.06,.61,.06,1.18,0,.6-.03,.6-.03,1.18v1.21c0,.35,.32,.67,.71,.67h1.17c.58,0,.58,.06,1.14,.06,.58,0,.58-.06,1.17-.06s.58,.06,1.17,.06h1.17c.58,0,.58-.06,1.14-.06,.58,0,.58-.03,1.17-.03,.39,0,.71,.35,.71,.73,0,.48,.03,.48,.03,.99v.96c0,.51,.03,.51,.03,.99,0,.38-.39,.76-.78,.76-.58,0-.58-.13-1.17-.13h-2.31c-.58,0-.58,.1-1.17,.1s-.58,.03-1.17,.03h-1.14c-.58,0-.58-.1-1.17-.1-.39,0-.75,.32-.75,.7,0,.64,.06,.64,.06,1.24v4.97c0,.6,.03,.6,.03,1.21,0,.38-.39,.76-.75,.76-.62,0-.62-.03-1.2-.03h-1.17c-.58,0-.58-.06-1.17-.06-.39,0-.71-.29-.71-.67,0-.57,.03-.57,.03-1.15s.03-.57,.03-1.18c0-.57-.07-.57-.07-1.15s.03-.57,.03-1.18v-1.15c0-.57,.06-.57,.06-1.18,0-.57-.06-.57-.06-1.15v-1.18c0-.57-.1-.57-.1-1.15s.1-.57,.1-1.18c0-.57-.03-.57-.03-1.15s-.03-.57-.03-1.18c0-.57,.03-.57,.03-1.15s.07-.57,.07-1.18v-1.15c0-.57,.03-.57,.03-1.18,0-.57-.03-.57-.03-1.15v-1.18c0-.57-.13-.57-.13-1.15,0-.38,.39-.7,.78-.7Z"/>
        <path class="cls-1" d="M87.09,161.03c0-1.19,.91-1.99,2.03-1.99,1.83,0,1.83,.1,3.55,.1s1.73-.2,3.45-.2,1.73,.2,3.45,.2c1.83,0,1.83-.2,3.55-.2s1.73,.1,3.45,.1h3.45c1.32,0,2.64-.1,3.86,0,1.32,.1,2.54,.4,3.76,.6,1.22,.2,2.44,.5,3.66,.8,1.32,.3,2.64,.3,3.76,.7,1.22,.5,2.34,1.19,3.45,1.69,1.12,.5,2.34,1.09,3.35,1.69,1.12,.6,2.34,1.09,3.35,1.79,1.12,.7,1.93,1.69,2.84,2.59,.91,.8,1.73,1.79,2.54,2.79,.81,.9,1.62,1.79,2.34,2.89,.71,1,1.52,1.99,2.13,3.09,.61,1.09,1.32,2.09,1.83,3.28,.41,1.2,.61,2.39,1.02,3.58,.3,1.19,.81,2.39,1.12,3.58,.2,1.29,.1,2.49,.2,3.78,.1,1.19,.3,2.49,.3,3.68,0,1.29-.3,2.49-.41,3.78-.1,1.19,0,2.49-.2,3.68-.3,1.29-.81,2.39-1.12,3.58-.41,1.19-.51,2.49-1.02,3.68-.51,1.09-1.12,2.19-1.73,3.28-.61,1.09-1.32,2.19-2.03,3.18-.71,1-1.32,2.09-2.13,3.08-.91,.9-1.83,1.79-2.74,2.59-.91,.9-1.83,1.79-2.84,2.49-1.02,.8-2.23,1.19-3.35,1.89-1.12,.6-2.13,1.39-3.35,1.89-1.12,.5-2.34,.8-3.55,1.19s-2.44,.8-3.66,1.09c-1.22,.3-2.54,.4-3.76,.6-1.22,.1-2.54,.3-3.76,.4-1.32,.1-2.54,.3-3.86,.3-1.73,0-1.73-.2-3.45-.2h-3.45c-1.73,0-1.73,.1-3.55,.1-1.73,0-1.73,.3-3.45,.3h-7.01c-1.12,0-1.93-1.09-1.93-2.29,0-1.79,.1-1.79,.1-3.58,0-1.89-.2-1.89-.2-3.68s-.2-1.79-.2-3.68c0-1.79,.1-1.79,.1-3.58s-.1-1.79-.1-3.68c0-1.79,.1-1.79,.1-3.58v-3.68c0-1.79,.2-1.79,.2-3.68,0-1.79-.2-1.79-.2-3.58,0-1.89,.2-1.89,.2-3.68s-.1-1.79-.1-3.58c0-1.89-.2-1.89-.2-3.68s.1-1.79,.1-3.68c0-1.79-.1-1.79-.1-3.58,0-1.89,.1-1.89,.1-3.68s.1-1.79,.1-3.68c0-1.79,.1-1.79,.1-3.58,0-1.89-.1-1.89-.1-3.68v-3.58Zm22.24,58.01c1.32,0,2.64,0,3.86-.1,1.32-.1,2.64-.3,3.86-.6,1.32-.3,2.54-.8,3.66-1.19,1.22-.5,2.44-.99,3.55-1.69,1.12-.7,1.93-1.59,2.84-2.49,.91-.89,1.93-1.79,2.64-2.89,.71-.99,1.32-2.19,1.83-3.28,.51-1.19,.71-2.49,1.02-3.68,.3-1.2,.71-2.39,.91-3.68,.1-1.29,.2-2.59,.2-3.88s-.41-2.49-.51-3.68c-.2-1.29-.1-2.59-.41-3.78-.3-1.29-.71-2.49-1.22-3.68s-1.42-2.09-2.13-3.18c-.71-.99-1.32-2.09-2.34-2.99-.81-.9-1.83-1.79-2.84-2.49-1.12-.7-2.34-1.2-3.55-1.69-1.12-.5-2.44-.7-3.76-.99-1.22-.3-2.44-.3-3.76-.5-1.22-.1-2.54-.4-3.86-.4-2.34,0-2.34,.2-4.77,.2-1.12,0-2.13,.7-2.13,1.89,0,1.79,.1,1.79,.1,3.58,0,1.69-.2,1.69-.2,3.48s.2,1.79,.2,3.58-.2,1.79-.2,3.58,.3,1.79,.3,3.58-.1,1.79-.1,3.48c0,1.79-.1,1.79-.1,3.58s.2,1.79,.2,3.58v3.58c0,1.79,.1,1.79,.1,3.48,0,1.79-.3,1.79-.3,3.58s.2,1.79,.2,3.58c0,1.09,.81,2.09,1.93,2.09h4.77Z"/>
        <path class="cls-1" d="M163.76,195.85c0-1.29,.1-2.49,.2-3.68,.1-1.29,0-2.59,.3-3.78,.2-1.19,.61-2.39,.91-3.58,.41-1.19,1.02-2.29,1.52-3.48,.41-1.19,.71-2.39,1.32-3.48,.61-1.09,1.22-2.19,1.93-3.18,.71-1.09,1.42-2.09,2.23-3.08,.81-.9,2.03-1.59,2.84-2.49,.91-.8,1.62-1.89,2.64-2.69,1.02-.8,2.23-1.29,3.25-1.89,1.12-.7,2.03-1.59,3.15-2.19,1.12-.5,2.34-.99,3.45-1.49,1.22-.4,2.44-.6,3.76-.9,1.12-.4,2.34-.8,3.66-1,1.22-.3,2.44-.5,3.76-.6,1.22-.1,2.44-.3,3.76-.3s2.54,.2,3.76,.3c1.32,.2,2.64,.2,3.86,.4,1.22,.2,2.44,.7,3.66,.99,1.22,.4,2.44,.8,3.55,1.29,1.22,.5,2.44,.8,3.55,1.29,1.12,.6,2.23,1.29,3.25,1.99,1.12,.6,2.03,1.49,3.05,2.29,1.02,.7,2.13,1.39,3.05,2.29,.81,.8,1.52,1.89,2.34,2.89,.81,.89,1.62,1.89,2.23,2.98,.71,1,1.32,2.09,1.93,3.18,.61,1.09,1.12,2.19,1.62,3.38,.41,1.19,1.02,2.29,1.32,3.48,.41,1.19,.41,2.39,.71,3.68,.2,1.19,.41,2.39,.51,3.68,.1,1.19,.51,2.39,.51,3.68s-.3,2.49-.41,3.68c-.1,1.29-.41,2.49-.61,3.68-.3,1.19-.51,2.39-.91,3.58-.3,1.19-.41,2.49-.81,3.68-.51,1.19-1.12,2.29-1.73,3.38s-1.42,2.09-2.13,3.08c-.61,.99-1.32,2.09-2.13,2.99-.81,.99-1.73,1.89-2.64,2.79-.91,.8-1.73,1.79-2.74,2.59-.91,.8-2.13,1.29-3.25,1.89-1.02,.7-2.13,1.29-3.25,1.89-1.12,.6-2.13,1.29-3.35,1.79s-2.44,.7-3.66,.99c-1.22,.4-2.44,.5-3.76,.7-1.22,.2-2.44,.6-3.76,.8-1.22,.1-2.44,.3-3.76,.3s-2.54-.2-3.76-.3c-1.32-.1-2.54-.5-3.76-.8-1.22-.2-2.54-.2-3.76-.5-1.22-.3-2.44-.8-3.55-1.29-1.22-.5-2.34-1.09-3.45-1.69-1.12-.6-2.13-1.19-3.25-1.89-1.02-.7-2.23-1.19-3.15-1.99-1.02-.8-2.03-1.59-2.94-2.39-.91-.9-1.62-1.99-2.34-2.89-.81-.99-1.73-1.89-2.44-2.89-.71-1.09-1.12-2.29-1.73-3.38-.61-1.09-1.42-2.09-1.83-3.28-.51-1.09-1.02-2.29-1.42-3.48-.3-1.19-.51-2.39-.71-3.68-.2-1.19-.3-2.39-.41-3.68-.1-1.19-.2-2.39-.2-3.68Zm61.64,0c0-1.29,0-2.49-.2-3.68-.1-1.29-.61-2.39-1.02-3.58-.3-1.19-.61-2.39-1.02-3.48-.51-1.19-.91-2.39-1.62-3.38-.61-1.09-1.62-1.89-2.44-2.79-.81-.99-1.73-1.79-2.74-2.59-.91-.7-2.03-1.39-3.15-1.99-1.02-.5-2.03-1.39-3.25-1.79-1.22-.3-2.54-.3-3.76-.5-1.22-.1-2.44-.6-3.76-.6s-2.54,.4-3.76,.6-2.44,.5-3.66,.8c-1.22,.4-2.44,.7-3.55,1.29-1.12,.6-2.03,1.39-3.05,2.09-1.02,.8-1.83,1.69-2.74,2.59-.81,.89-1.42,1.99-2.13,2.98-.61,1.09-1.32,2.09-1.83,3.18-.51,1.19-.81,2.39-1.12,3.58-.3,1.19-.71,2.29-.81,3.58-.2,1.19-.3,2.39-.3,3.68s.3,2.49,.41,3.68c.2,1.19,.3,2.39,.61,3.58,.41,1.19,.71,2.39,1.12,3.58,.51,1.09,1.32,2.09,2.03,3.08,.61,1.09,1.22,2.19,2.03,3.08,.81,.99,1.73,1.79,2.74,2.59,.91,.7,2.03,1.49,3.05,2.09,1.12,.6,2.34,1.09,3.55,1.49,1.12,.3,2.44,.5,3.66,.7,1.22,.2,2.44,.5,3.76,.5s2.54-.2,3.76-.4c1.32-.2,2.44-.7,3.66-1.09,1.22-.4,2.44-.7,3.55-1.19,1.12-.6,2.23-1.19,3.15-1.99,1.02-.8,1.93-1.69,2.74-2.59,.91-.89,1.32-2.09,1.93-3.18,.71-.99,1.32-2.09,1.83-3.18,.51-1.09,1.02-2.19,1.42-3.48,.3-1.09,.51-2.39,.61-3.58,.2-1.19,.3-2.39,.3-3.68Z"/>
        <path class="cls-1" d="M255.77,195.85c0-1.29-.2-2.49-.1-3.78,.1-1.19,.41-2.39,.71-3.58,.2-1.29,.51-2.49,.81-3.68,.41-1.19,.81-2.29,1.32-3.48,.41-1.09,.81-2.29,1.42-3.38,.61-1.09,1.22-2.19,1.93-3.18,.71-1.09,1.73-1.89,2.54-2.79,.71-.99,1.52-1.89,2.44-2.79,.91-.9,1.83-1.69,2.84-2.49,1.02-.8,1.93-1.59,2.94-2.19,1.12-.7,2.13-1.39,3.25-1.99,1.12-.6,2.34-.9,3.55-1.29,1.12-.5,2.34-1,3.55-1.39,1.22-.3,2.44-.5,3.66-.8,1.22-.2,2.44-.6,3.76-.7,1.22-.1,2.44,.2,3.76,.2,1.22,0,2.54-.3,3.66-.3,1.32,.1,2.54,.2,3.76,.4s2.34,.7,3.55,.99c1.22,.3,2.44,.4,3.55,.8,1.12,.5,2.33,1,3.35,1.49,1.12,.6,2.13,1.19,3.15,1.89,1.02,.7,1.93,1.59,2.84,2.39,.91,.8,1.62,1.79,2.44,2.69,.81,.9,1.83,1.59,2.54,2.59,.71,1,.41,2.39-.51,3.08-1.42,1-1.42,.9-2.84,1.89-1.42,1-1.52,.8-2.94,1.69-1.32,.99-1.32,1.09-2.64,2.09-.91,.7-2.13,.4-2.84-.5-.71-.99-1.52-1.99-2.54-2.89-.91-.8-2.03-1.59-3.15-2.29-1.12-.6-2.44-.99-3.66-1.39-1.22-.4-2.44-1-3.76-1.2-1.22-.2-2.64,0-3.96,0s-2.54,0-3.76,.2-2.54,.3-3.66,.7c-1.22,.3-2.33,.9-3.45,1.39-1.12,.6-2.03,1.49-2.94,2.19-1.02,.8-1.93,1.59-2.74,2.49-.91,.9-1.42,1.99-2.13,3.08-.61,.99-1.22,1.99-1.73,3.18-.51,1.09-1.02,2.19-1.32,3.38s-.51,2.39-.71,3.58c-.1,1.19,0,2.39,0,3.68,0,1.19-.2,2.49-.1,3.68,.2,1.19,.41,2.39,.81,3.58,.3,1.19,.61,2.39,1.12,3.48,.51,1.19,1.12,2.19,1.73,3.28,.71,.99,1.52,1.89,2.33,2.79,.91,.99,1.62,1.99,2.54,2.79,1.02,.8,2.03,1.39,3.15,1.99,1.12,.6,2.23,1.09,3.45,1.49,1.22,.4,2.44,.7,3.66,.89,1.22,.2,2.44,.1,3.76,.1,1.22,0,2.44-.1,3.55-.2,1.22-.2,2.44-.2,3.45-.6,1.22-.3,2.23-.99,3.25-1.49,1.02-.6,2.13-.99,3.05-1.69,.91-.7,1.62-1.69,2.44-2.59,.81-.8,1.52-1.69,2.23-2.59,.61-.9,1.93-.9,2.94-.3,1.42,.99,1.52,.7,3.05,1.69,1.42,.99,1.32,.99,2.74,1.99,1.42,.9,1.52,.9,2.94,1.89,.91,.6,1.12,1.99,.41,2.99-.81,.99-1.62,1.89-2.54,2.89-.81,.9-1.73,1.89-2.64,2.69-.91,.89-1.93,1.79-2.95,2.49-1.02,.7-2.13,1.49-3.25,2.09-1.12,.6-2.44,.9-3.55,1.39-1.22,.5-2.44,.99-3.66,1.29-1.22,.4-2.44,.7-3.76,.9-1.22,.2-2.54,.5-3.86,.6-1.22,.1-2.54,0-3.86,0s-2.54,.1-3.76,0c-1.32-.1-2.54-.3-3.76-.5-1.32-.3-2.54-.5-3.76-.9-1.22-.3-2.44-.7-3.55-1.19-1.22-.4-2.23-1.19-3.35-1.79-1.12-.5-2.44-.8-3.45-1.49-1.12-.7-2.03-1.59-2.94-2.39-1.02-.7-1.83-1.69-2.74-2.59-.91-.9-1.73-1.79-2.54-2.69-.81-.99-1.83-1.79-2.54-2.79-.71-1.09-1.02-2.29-1.62-3.38-.51-1.09-1.12-2.19-1.62-3.38-.41-1.09-.81-2.29-1.22-3.48-.3-1.19-.61-2.39-.81-3.58-.2-1.19-.81-2.39-.91-3.68-.1-1.19,.2-2.49,.2-3.68Z"/>
        <path class="cls-1" d="M343.31,159.04c1.83,0,1.83-.1,3.66-.1h3.76c1.93,0,1.93,.3,3.76,.3,1.12,0,1.83,.7,1.83,1.89,0,1.79,.1,1.79,.1,3.68s.1,1.89,.1,3.68c0,1.89,.1,1.89,.1,3.68,0,1.89,.1,1.89,.1,3.78,0,1.79-.3,1.79-.3,3.68,0,1.79,.1,1.79,.1,3.68,0,.7,.1,1.39,0,2.19-.1,2.09,2.64,2.89,3.76,1.09,.61-.8,1.32-1.59,1.93-2.39,1.12-1.39,1.22-1.29,2.23-2.69,1.12-1.29,1.02-1.39,2.13-2.69,1.12-1.39,1.02-1.39,2.13-2.79,1.02-1.29,1.22-1.19,2.23-2.59,1.12-1.29,1.02-1.39,2.03-2.79,1.12-1.39,1.02-1.49,2.03-2.79,1.12-1.39,1.32-1.19,2.34-2.59,.91-1.09,.71-1.19,1.73-2.59,1.12-1.29,1.22-1.19,2.34-2.59,.41-.5,1.02-.6,1.62-.6,1.73,0,1.73-.4,3.45-.4s1.73,.1,3.45,.1,1.73,.3,3.45,.3h3.35c1.12,0,1.62,.9,.91,1.79q-1.12,1.49-2.23,2.89c-1.22,1.49-1.02,1.19-2.13,2.59-1.12,1.49-1.02,1.59-2.13,2.99-1.12,1.49-1.02,1.59-2.13,3.08q-1.12,1.39-2.23,2.89c-1.22,1.39-1.52,1.19-2.64,2.59q-1.12,1.49-2.23,2.98c-1.12,1.39-.91,1.59-2.13,2.99-1.12,1.49-1.32,1.29-2.44,2.79-1.12,1.39-1.22,1.39-2.34,2.79-.61,.7-.41,1.79,.1,2.49,.91,1.49,1.02,1.39,2.03,2.89,1.02,1.39,.81,1.59,1.83,2.99,1.02,1.49,.91,1.49,1.93,2.99,.91,1.39,1.02,1.39,1.93,2.89,1.02,1.49,1.12,1.39,2.13,2.89,1.02,1.39,1.12,1.29,2.03,2.79,1.02,1.49,.91,1.49,1.93,2.98,.91,1.49,1.12,1.39,2.13,2.79,.91,1.49,.81,1.59,1.73,3.08,1.02,1.39,1.02,1.49,1.93,2.89,1.02,1.49,1.32,1.29,2.34,2.79,.91,1.39,.81,1.49,1.83,2.99,1.02,1.39,.81,1.49,1.83,2.99,.61,.9,.1,1.99-1.02,1.99-1.93,0-1.93,.2-3.76,.2h-7.31c-1.83,0-1.83-.2-3.76-.2-.61,0-1.32-.2-1.73-.8q-1.02-1.49-2.03-2.89c-1.02-1.49-.91-1.59-1.83-3.09q-1.02-1.49-2.03-2.89c-1.02-1.49-.91-1.59-1.83-3.08-1.02-1.49-1.32-1.29-2.23-2.79q-1.02-1.49-2.03-2.89c-1.02-1.49-.81-1.59-1.83-3.08-1.02-1.49-.91-1.49-1.93-2.99-1.02-1.49-.91-1.59-1.83-3.08-.81-1.09-2.54-.99-3.35,0q-1.32,1.49-2.54,2.89c-1.22,1.49-1.32,1.39-2.54,2.89-.3,.4-.41,.8-.41,1.29,0,1.89-.3,1.89-.3,3.68v14.83c0,1.19-.81,2.19-1.93,2.19-1.83,0-1.83-.3-3.76-.3-1.83,0-1.83,.1-3.76,.1-1.83,0-1.83-.1-3.66-.1-1.22,0-2.03-.7-2.03-1.89v-3.58c0-1.79-.2-1.79-.2-3.68,0-1.79,.31-1.79,.31-3.58,0-1.89-.1-1.89-.1-3.68s.1-1.79,.1-3.68c0-1.79-.1-1.79-.1-3.58,0-1.89-.3-1.89-.3-3.68v-3.58c0-1.89,.2-1.89,.2-3.68s.1-1.79,.1-3.68c0-1.79-.2-1.79-.2-3.58,0-1.89,.2-1.89,.2-3.68s.1-1.79,.1-3.68c0-1.79-.31-1.79-.31-3.58s.1-1.79,.1-3.68c0-1.79,.2-1.79,.2-3.58,0-1.89-.2-1.89-.2-3.68s-.2-1.79-.2-3.68v-3.58c0-1.19,1.12-2.09,2.34-2.09Z"/>
      </g>
      <path class="cls-2" d="M338.96,15c36.21,0,70.24,14.1,95.85,39.7,25.6,25.6,39.7,59.64,39.7,95.85s-14.1,70.24-39.7,95.85c-25.6,25.6-59.64,39.7-95.85,39.7H150.55c-36.21,0-70.24-14.1-95.85-39.7S15,186.75,15,150.55,29.1,80.3,54.7,54.7C80.3,29.1,114.34,15,150.55,15h188.41m0-15H150.55C67.4,0,0,67.4,0,150.55H0c0,83.14,67.4,150.55,150.55,150.55h188.41c83.14,0,150.55-67.4,150.55-150.55h0C489.51,67.4,422.1,0,338.96,0h0Z"/>
      <g>
        <path class="cls-3" d="M193.56,62.87l20.41,2.12c-.63-1.87-1.75-2.64-2.7-2.54-1.74,.19-2.51-2.91-6.01-3.17,.4,.79,1.01,2.08,.75,2.37-.37,.43-3.89,.44-4.22-.53-.17-.51,.27-1.28,.74-1.89-.26-.01-.52-.03-.78-.02-3.81,.25-3.4,2.35-5.21,1.97-1.22-.25-2.34,.19-2.99,1.68Z"/>
        <path class="cls-3" d="M284.29,62.87l-20.41,2.12c.63-1.87,1.75-2.64,2.7-2.54,1.74,.19,2.51-2.91,6.01-3.17-.4,.79-1.01,2.08-.75,2.37,.37,.43,3.89,.44,4.22-.53,.17-.51-.27-1.28-.74-1.89,.26-.01,.52-.03,.78-.02,3.81,.25,3.4,2.35,5.21,1.97,1.22-.25,2.34,.19,2.99,1.68Z"/>
        <path class="cls-5" d="M355.37,63.78c-6.79-10.57-80.64,4.29-116.28,4.36-41.79,.08-108.73-14.74-116.06-3.61,0,0-.53,.7-.53,2.06v10.6c11.19-.72,40.27-.83,56.64,5.81s22.9,21.45-5.23,40.95c-13.7,9.5,24.34,18.07,65.13,17.88,40.79-.19,81.21-8.42,65.5-17.88-24.83-14.95-24.02-31.27-6.15-40.21,20.46-10.23,53.09-6.02,58.05-5.75v-11.41c0-1.1-.38-2.02-1.07-2.81Zm-85.13,53.82c-4.36,5-14.38,9.23-24.35,8.7,4.42-.41,9.94-2.23,14.35-5.14-1.43,.12-2.72,0-3.62-.13,1.96-.74,3.71-1.6,5.23-2.57-4.76,.49-13.6,1.24-23.43,1.24-8.6,0-16.2-.85-21.02-1.56,1.46,.99,3.18,1.88,5.1,2.65-1.13,.27-2.7,.52-4.25,.32,4.43,2.94,9.99,4.79,14.44,5.2-9.97,.53-19.79-3.1-23.7-9.08-3.74-5.72-5.46-25.75,30.41-25.75s36.72,19.4,30.85,26.13Z"/>
        <path class="cls-1" d="M239.87,95.75c-15.45,0-27.98,6.28-27.98,14.03,0,.93,.19,1.84,.54,2.72,2.93,1.91,8.27,3.44,15.4-2.72,14.09-12.16,23.45-5.37,23.45-5.37-6.25,.74-5.66,15.92,16.17,7.7,.25-.76,.39-1.53,.39-2.33,0-7.75-12.53-14.03-27.98-14.03Z"/>
        <path class="cls-3" d="M355.91,64.54c-4.3-11.76-80.32,3.53-116.63,3.6-41.79,.08-108.92-14.74-116.25-3.61,12.14-8.09,59.17,5.61,79.65,9.66,22.56,4.46,56.39,4.05,83.44-2.78,24.93-6.29,62.21-13.95,69.8-6.87Z"/>
        <path class="cls-4" d="M217.4,118.14c-2.41-2.09-4.4-4.03-4.97-5.63,2.93,1.91,8.36,2.42,15.49-3.74,14.09-12.16,23.45-4.37,23.45-4.37-6.25,.74-5.75,15.94,16.09,7.72-1.27,4.28-5.6,6.34-5.6,6.34,0,0-12.69,1.24-23.43,1.24s-21.02-1.56-21.02-1.56Z"/>
      </g>
    </g>
  </g>
</svg>