<?xml version="1.0" encoding="UTF-8"?>
<svg id="Layer_2" data-name="Layer 2" xmlns="http://www.w3.org/2000/svg" viewBox="0 0 2500.49 1562.87">
  <defs>
    <style>
      .cls-1 {
        fill: #fefacf;
      }
    </style>
  </defs>
  <g id="Layer_2-2" data-name="Layer 2">
    <g>
      <path class="cls-1" d="M625.73,624.27c-173.27,0-313.35,140.08-313.35,312.87s140.08,312.87,312.87,312.87,312.87-140.08,312.87-312.87c.49-172.78-139.59-312.87-312.38-312.87h0Zm0,536.9c-123.49,0-224.03-100.06-224.03-224.03s100.06-224.03,224.03-224.03,223.55,100.55,223.55,224.03-100.06,224.03-223.55,224.03Z"/>
      <circle class="cls-1" cx="626.71" cy="936.65" r="155.7"/>
      <path class="cls-1" d="M1875.24,624.27c-172.78,0-312.87,140.08-312.87,312.87s140.08,312.87,312.87,312.87,312.87-140.08,312.87-312.87-140.08-312.87-312.87-312.87Zm0,536.9c-123.49,0-224.03-100.06-224.03-224.03s100.06-224.03,224.03-224.03,223.55,100.55,223.55,224.03-100.06,224.03-223.55,224.03Z"/>
      <circle class="cls-1" cx="1876.22" cy="936.65" r="155.7"/>
      <path class="cls-1" d="M2315.5,493.95l184.01-182.55h-372.9C1917.71,141.55,1570.68,0,1249.02,0S582.78,141.55,373.88,311.4H0l184.01,182.55C70.29,607.18,0,763.86,0,937.13c0,345.57,280.16,625.73,625.73,625.73,158.63,0,303.59-59.06,413.9-156.68l211.83,155.7,209.39-152.28-2.44-5.86c110.8,98.59,256.25,158.63,416.34,158.63,345.57,0,625.73-280.16,625.73-625.73-.49-172.78-71.26-329.46-184.99-442.7h0Zm-519.33-177.66c-296.27,37.09-528.6,281.14-546.17,583.27-18.06-302.62-250.88-547.15-548.13-583.27,149.36-107.38,339.71-160.09,547.15-160.09s397.79,52.71,547.15,160.09ZM625.73,1406.68c-259.66,0-469.54-210.37-469.54-469.54s210.37-469.54,469.54-469.54,469.54,210.37,469.54,469.54c-.49,259.18-210.37,469.54-469.54,469.54Zm1249.51,0c-259.18,0-469.54-210.37-469.54-469.54s210.37-469.54,469.54-469.54,469.54,210.37,469.54,469.54c-.49,259.18-210.37,469.54-469.54,469.54Z"/>
    </g>
  </g>
</svg>