<?xml version="1.0" encoding="UTF-8"?><svg xmlns="http://www.w3.org/2000/svg" viewBox="0 0 154.5 108.17"><defs><style>.d{fill:#fffaca;}</style></defs><g id="a"/><g id="b"><g id="c"><path class="d" d="M77.11,108.16c-18.03,0-36.05,.02-54.08,0-10.42-.02-19.47-6.94-22.14-17.01-.57-2.17-.83-4.48-.84-6.72C-.01,64.18,.05,43.95,0,23.71-.03,11.2,8.65,2.45,18.53,.51,20.15,.19,21.84,.03,23.5,.02,59.35,0,95.2,0,131.05,.01c11.21,0,20.42,7.35,22.83,18.21,.39,1.74,.57,3.57,.57,5.36,.04,20.37,.05,40.74,.02,61.1-.02,12.08-8.35,21.62-20.29,23.32-1.12,.16-2.26,.15-3.4,.15-17.89,0-35.79,0-53.68,0ZM62.14,22.37c-.48,2.74-.35,55.97,.09,57.3,3.17-1.58,42.32-27.63,43.21-28.77-14.41-9.49-28.81-18.99-43.3-28.54Z"/></g></g></svg>